<svg xmlns="http://www.w3.org/2000/svg" width="9" height="15"><path d="M8.844 7.154L1.64.15a.498.498 0 00-.71 0L.156.9a.469.469 0 00-.155.346c0 .13.051.246.155.346L6.23 7.5.157 13.406a.468.468 0 00-.155.346c0 .13.051.245.155.346l.772.751a.496.496 0 00.711 0l7.204-7.004a.468.468 0 00.154-.345.469.469 0 00-.154-.346z"/><path fill="#fff" d="M8.844 7.154L1.64.15a.498.498 0 00-.71 0L.156.9a.469.469 0 00-.155.346c0 .13.051.246.155.346L6.23 7.5.157 13.406a.468.468 0 00-.155.346c0 .13.051.245.155.346l.772.751a.496.496 0 00.711 0l7.204-7.004a.468.468 0 00.154-.345.469.469 0 00-.154-.346z"/></svg>