<svg xmlns="http://www.w3.org/2000/svg" width="9" height="15"><path d="M.156 7.846L7.36 14.85a.498.498 0 00.712 0l.772-.751a.469.469 0 00.155-.346.468.468 0 00-.155-.346L2.77 7.5l6.074-5.906a.468.468 0 00.155-.346.47.47 0 00-.155-.346L8.071.151a.496.496 0 00-.712 0L.156 7.155a.468.468 0 00-.154.345c0 .13.051.246.154.346z"/><path fill="#fff" d="M.156 7.846L7.36 14.85a.498.498 0 00.712 0l.772-.751a.469.469 0 00.155-.346.468.468 0 00-.155-.346L2.77 7.5l6.074-5.906a.468.468 0 00.155-.346.47.47 0 00-.155-.346L8.071.151a.496.496 0 00-.712 0L.156 7.155a.468.468 0 00-.154.345c0 .13.051.246.154.346z"/></svg>