<svg xmlns="http://www.w3.org/2000/svg" width="50" height="35"><path fill="#4361c3" d="M4 0h42a4 4 0 014 4v26.969a4 4 0 01-4 4H4a4 4 0 01-4-4V4a4 4 0 014-4z"/><path fill="#ffaf38" d="M30.99 10.29c4.174 0 7.559 3.34 7.559 7.46 0 4.119-3.385 7.458-7.56 7.458-4.174 0-7.559-3.34-7.559-7.459s3.385-7.459 7.56-7.459z"/><path fill="#eb3636" d="M19.01 10.29c4.175 0 7.56 3.34 7.56 7.46 0 4.119-3.385 7.458-7.56 7.458-4.174 0-7.559-3.34-7.559-7.459s3.385-7.459 7.56-7.459z"/><path fill="#fff" d="M2.845 34.993c-1.573 0-2.847-1.295-2.847-2.893V2.897C-.002 1.3 1.272.004 2.845.004h44.308C48.725.004 50 1.299 50 2.897" opacity=".05"/></svg>